<svg xmlns="http://www.w3.org/2000/svg" xmlns:xlink="http://www.w3.org/1999/xlink" viewBox="0 0 1920 461"><defs><style>.a{clip-path:url(#j)}.b,.c,.d{fill:rgba(75,60,216,.64)}.b{stroke:#f8f8f8}.d,.h{stroke:#e1e1e1}.e{fill:#fff;stroke:#efefef}.f{fill:#f3f3f3}.g{fill:#ceceff}.h{fill:#fdfde7}.i{stroke:none}.j{fill:none}.k{filter:url(#g)}.l{filter:url(#e)}.m{filter:url(#c)}.n{filter:url(#a)}</style><filter id="a" width="356.315" height="262.794" x="6.204" y="4.449" filterUnits="userSpaceOnUse"><feOffset input="SourceAlpha"/><feGaussianBlur result="b" stdDeviation="2.5"/><feFlood flood-color="#4b4b4b" flood-opacity=".11"/><feComposite in2="b" operator="in"/><feComposite in="SourceGraphic"/></filter><filter id="c" width="137.675" height="90.04" x="73.02" y="137.903" filterUnits="userSpaceOnUse"><feOffset input="SourceAlpha"/><feGaussianBlur result="d" stdDeviation="2.5"/><feFlood flood-color="#4b4b4b" flood-opacity=".11"/><feComposite in2="d" operator="in"/><feComposite in="SourceGraphic"/></filter><filter id="e" width="356.315" height="262.794" x="83.204" y="15.449" filterUnits="userSpaceOnUse"><feOffset input="SourceAlpha"/><feGaussianBlur result="f" stdDeviation="2.5"/><feFlood flood-color="#4b4b4b" flood-opacity=".11"/><feComposite in2="f" operator="in"/><feComposite in="SourceGraphic"/></filter><filter id="g" width="137.675" height="90.04" x="150.02" y="148.903" filterUnits="userSpaceOnUse"><feOffset input="SourceAlpha"/><feGaussianBlur result="h" stdDeviation="2.5"/><feFlood flood-color="#4b4b4b" flood-opacity=".11"/><feComposite in2="h" operator="in"/><feComposite in="SourceGraphic"/></filter><clipPath id="j"><rect width="1920" height="461"/></clipPath></defs><g id="i" class="a"><g class="n"><g class="b" transform="matrix(1, 0, 0, 1, 0, 0) matrix(0.89, -0.45, 0.45, 0.89, 13.7, 159.95)"><rect width="326" height="112" class="i" rx="5"/><rect width="325" height="111" x=".5" y=".5" class="j" rx="4.5"/></g></g><rect width="183" height="27" class="c" rx="10" transform="matrix(0.891, -0.454, 0.454, 0.891, 59.704, 164.95)"/><g class="m" transform="matrix(1, 0, 0, 1, 0, 0)"><rect width="128" height="19" class="c" rx="9.5" transform="matrix(0.89, -0.45, 0.45, 0.89, 80.52, 203.51)"/></g><g class="d" transform="translate(293 89)"><circle cx="15" cy="15" r="15" class="i"/><circle cx="15" cy="15" r="14.5" class="j"/></g><g transform="translate(77 11)"><g class="l"><g class="e" transform="matrix(1, 0, 0, 1, -77, -11) matrix(0.89, -0.45, 0.45, 0.89, 90.7, 170.95)"><rect width="326" height="112" class="i" rx="5"/><rect width="325" height="111" x=".5" y=".5" class="j" rx="4.5"/></g></g><rect width="183" height="27" class="f" rx="10" transform="matrix(0.891, -0.454, 0.454, 0.891, 59.704, 164.95)"/><g class="k" transform="matrix(1, 0, 0, 1, -77, -11)"><rect width="128" height="19" class="g" rx="9.5" transform="matrix(0.89, -0.45, 0.45, 0.89, 157.52, 214.51)"/></g><g class="h" transform="translate(293 89)"><circle cx="15" cy="15" r="15" class="i"/><circle cx="15" cy="15" r="14.5" class="j"/></g></g></g></svg>