<svg xmlns="http://www.w3.org/2000/svg" xmlns:xlink="http://www.w3.org/1999/xlink" viewBox="0 0 1920 461"><defs><style>.a{clip-path:url(#j);}.b,.c,.d{fill:rgba(75,60,216,0.64);}.b{stroke:#f8f8f8;}.d,.h{stroke:#e1e1e1;}.e{fill:#fff;stroke:#efefef;}.f{fill:#f3f3f3;}.g{fill:#ceceff;}.h{fill:#fdfde7;}.i{stroke:none;}.j{fill:none;}.k{filter:url(#g);}.l{filter:url(#e);}.m{filter:url(#c);}.n{filter:url(#a);}</style><filter id="a" x="6.204" y="4.449" width="356.315" height="262.794" filterUnits="userSpaceOnUse"><feOffset input="SourceAlpha"/><feGaussianBlur stdDeviation="2.5" result="b"/><feFlood flood-color="#4b4b4b" flood-opacity="0.11"/><feComposite operator="in" in2="b"/><feComposite in="SourceGraphic"/></filter><filter id="c" x="73.02" y="137.903" width="137.675" height="90.04" filterUnits="userSpaceOnUse"><feOffset input="SourceAlpha"/><feGaussianBlur stdDeviation="2.5" result="d"/><feFlood flood-color="#4b4b4b" flood-opacity="0.11"/><feComposite operator="in" in2="d"/><feComposite in="SourceGraphic"/></filter><filter id="e" x="83.204" y="15.449" width="356.315" height="262.794" filterUnits="userSpaceOnUse"><feOffset input="SourceAlpha"/><feGaussianBlur stdDeviation="2.5" result="f"/><feFlood flood-color="#4b4b4b" flood-opacity="0.11"/><feComposite operator="in" in2="f"/><feComposite in="SourceGraphic"/></filter><filter id="g" x="150.02" y="148.903" width="137.675" height="90.04" filterUnits="userSpaceOnUse"><feOffset input="SourceAlpha"/><feGaussianBlur stdDeviation="2.5" result="h"/><feFlood flood-color="#4b4b4b" flood-opacity="0.11"/><feComposite operator="in" in2="h"/><feComposite in="SourceGraphic"/></filter><clipPath id="j"><rect width="1920" height="461"/></clipPath></defs><g id="i" class="a"><g class="n" transform="matrix(1, 0, 0, 1, 0, 0)"><g class="b" transform="matrix(0.89, -0.45, 0.45, 0.89, 13.7, 159.95)"><rect class="i" width="326" height="112" rx="5"/><rect class="j" x="0.5" y="0.5" width="325" height="111" rx="4.5"/></g></g><rect class="c" width="183" height="27" rx="10" transform="matrix(0.891, -0.454, 0.454, 0.891, 59.704, 164.95)"/><g class="m" transform="matrix(1, 0, 0, 1, 0, 0)"><rect class="c" width="128" height="19" rx="9.5" transform="matrix(0.89, -0.45, 0.45, 0.89, 80.52, 203.51)"/></g><g class="d" transform="translate(293 89)"><circle class="i" cx="15" cy="15" r="15"/><circle class="j" cx="15" cy="15" r="14.5"/></g><g transform="translate(77 11)"><g class="l" transform="matrix(1, 0, 0, 1, -77, -11)"><g class="e" transform="matrix(0.89, -0.45, 0.45, 0.89, 90.7, 170.95)"><rect class="i" width="326" height="112" rx="5"/><rect class="j" x="0.5" y="0.5" width="325" height="111" rx="4.5"/></g></g><rect class="f" width="183" height="27" rx="10" transform="matrix(0.891, -0.454, 0.454, 0.891, 59.704, 164.95)"/><g class="k" transform="matrix(1, 0, 0, 1, -77, -11)"><rect class="g" width="128" height="19" rx="9.5" transform="matrix(0.89, -0.45, 0.45, 0.89, 157.52, 214.51)"/></g><g class="h" transform="translate(293 89)"><circle class="i" cx="15" cy="15" r="15"/><circle class="j" cx="15" cy="15" r="14.5"/></g></g></g></svg>